<svg xmlns="http://www.w3.org/2000/svg" xmlns:xlink="http://www.w3.org/1999/xlink" width="220" zoomAndPan="magnify" viewBox="0 0 165 74.999997" height="100" preserveAspectRatio="xMidYMid meet" version="1.0"><defs><clipPath id="8767e674bb"><path d="M 7.5 25.574219 L 157.5 25.574219 L 157.5 49.574219 L 7.5 49.574219 Z M 7.5 25.574219 " clip-rule="nonzero"/></clipPath></defs><rect x="-16.5" width="198" fill="#ffffff" y="-7.5" height="89.999996" fill-opacity="1"/><rect x="-16.5" width="198" fill="#ffffff" y="-7.5" height="89.999996" fill-opacity="1"/><g clip-path="url(#8767e674bb)"><path fill="#009999" d="M 155.691406 26.417969 L 155.691406 30.910156 C 153.378906 30.03125 151.320312 29.585938 149.515625 29.585938 C 148.449219 29.585938 147.597656 29.785156 146.960938 30.171875 C 146.320312 30.558594 145.996094 31.035156 145.996094 31.597656 C 145.996094 32.347656 146.714844 33.015625 148.167969 33.613281 L 152.367188 35.667969 C 155.757812 37.292969 157.441406 39.457031 157.441406 42.171875 C 157.441406 44.429688 156.550781 46.230469 154.746094 47.5625 C 152.960938 48.910156 150.550781 49.574219 147.554688 49.574219 C 146.167969 49.574219 144.925781 49.515625 143.824219 49.390625 C 142.71875 49.269531 141.453125 49.023438 140.046875 48.671875 L 140.046875 43.972656 C 142.625 44.851562 144.972656 45.296875 147.089844 45.296875 C 149.613281 45.296875 150.867188 44.558594 150.867188 43.074219 C 150.867188 42.335938 150.351562 41.738281 149.308594 41.269531 L 144.648438 39.269531 C 142.929688 38.488281 141.648438 37.539062 140.8125 36.417969 C 139.988281 35.28125 139.570312 33.984375 139.570312 32.496094 C 139.570312 30.417969 140.441406 28.746094 142.160156 27.472656 C 143.894531 26.207031 146.191406 25.574219 149.050781 25.574219 C 149.980469 25.574219 151.050781 25.65625 152.238281 25.808594 C 153.433594 25.972656 154.582031 26.171875 155.691406 26.417969 Z M 23.667969 26.417969 L 23.667969 30.910156 C 21.355469 30.03125 19.296875 29.585938 17.496094 29.585938 C 16.425781 29.585938 15.578125 29.785156 14.941406 30.171875 C 14.300781 30.558594 13.976562 31.035156 13.976562 31.597656 C 13.976562 32.347656 14.707031 33.015625 16.160156 33.613281 L 20.355469 35.667969 C 23.734375 37.292969 25.421875 39.457031 25.421875 42.171875 C 25.421875 44.429688 24.527344 46.230469 22.738281 47.5625 C 20.9375 48.910156 18.539062 49.574219 15.53125 49.574219 C 14.148438 49.574219 12.902344 49.515625 11.800781 49.390625 C 10.695312 49.269531 9.441406 49.023438 8.023438 48.671875 L 8.023438 43.972656 C 10.613281 44.851562 12.964844 45.296875 15.066406 45.296875 C 17.589844 45.296875 18.84375 44.558594 18.84375 43.074219 C 18.84375 42.335938 18.332031 41.738281 17.296875 41.269531 L 12.636719 39.269531 C 10.90625 38.488281 9.625 37.539062 8.800781 36.417969 C 7.964844 35.28125 7.558594 33.984375 7.558594 32.496094 C 7.558594 30.417969 8.421875 28.746094 10.148438 27.472656 C 11.871094 26.207031 14.171875 25.574219 17.03125 25.574219 C 17.972656 25.574219 19.027344 25.65625 20.226562 25.808594 C 21.414062 25.972656 22.5625 26.171875 23.667969 26.417969 Z M 35.3125 25.996094 L 35.3125 49.152344 L 28.476562 49.152344 L 28.476562 25.996094 Z M 57.542969 49.152344 L 40.597656 49.152344 L 40.597656 25.996094 L 57.335938 25.996094 L 57.335938 30.277344 L 47.179688 30.277344 L 47.179688 35.410156 L 55.988281 35.410156 L 55.988281 39.269531 L 47.179688 39.269531 L 47.179688 44.660156 L 57.542969 44.660156 Z M 61.320312 49.152344 L 61.320312 25.996094 L 69.664062 25.996094 L 75.359375 40.171875 L 81.320312 25.996094 L 89.246094 25.996094 L 89.246094 49.152344 L 82.867188 49.152344 L 82.867188 33.878906 L 76.242188 49.367188 L 72.304688 49.367188 L 65.9375 33.878906 L 65.9375 49.152344 Z M 111.46875 49.152344 L 94.523438 49.152344 L 94.523438 25.996094 L 111.257812 25.996094 L 111.257812 30.277344 L 101.160156 30.277344 L 101.160156 35.410156 L 109.96875 35.410156 L 109.96875 39.269531 L 101.160156 39.269531 L 101.160156 44.660156 L 111.46875 44.660156 Z M 135.246094 49.152344 L 127.996094 49.152344 L 119.859375 34.300781 L 119.859375 49.152344 L 115.246094 49.152344 L 115.246094 25.996094 L 122.707031 25.996094 L 130.632812 40.59375 L 130.632812 25.996094 L 135.246094 25.996094 Z M 135.246094 49.152344 " fill-opacity="1" fill-rule="evenodd"/></g></svg>