<svg xmlns="http://www.w3.org/2000/svg" xmlns:xlink="http://www.w3.org/1999/xlink" width="60" height="60" viewBox="0 0 60 60">
  <defs>
    <clipPath id="clip-why-choose-3">
      <rect width="60" height="60"/>
    </clipPath>
  </defs>
  <g id="why-choose-3" clip-path="url(#clip-why-choose-3)">
    <path id="reduce-cost" d="M103.944,27.269a29.533,29.533,0,0,0-11.625-2.144,29.531,29.531,0,0,0-11.625,2.144c-3.371,1.494-5.228,3.575-5.229,5.861h0V59.995c0,2.286,1.857,4.367,5.229,5.861A29.533,29.533,0,0,0,92.319,68a29.533,29.533,0,0,0,11.625-2.144c3.372-1.494,5.229-3.575,5.229-5.861V33.13c0-2.286-1.857-4.367-5.229-5.861Zm-.784,36.817a27.581,27.581,0,0,1-10.841,1.978,27.582,27.582,0,0,1-10.841-1.978c-2.591-1.148-4.077-2.639-4.077-4.091v-2.9a12.385,12.385,0,0,0,3.293,2.047,29.533,29.533,0,0,0,11.625,2.144,29.533,29.533,0,0,0,11.625-2.144,12.385,12.385,0,0,0,3.293-2.047V60c0,1.452-1.486,2.943-4.077,4.091Zm0-6.716a27.582,27.582,0,0,1-10.841,1.978A27.582,27.582,0,0,1,81.478,57.37c-2.591-1.148-4.077-2.639-4.077-4.091v-2.9a12.385,12.385,0,0,0,3.293,2.047,29.533,29.533,0,0,0,11.625,2.144,29.533,29.533,0,0,0,11.625-2.144,12.385,12.385,0,0,0,3.293-2.047v2.9c0,1.452-1.486,2.944-4.077,4.091Zm0-6.716a27.582,27.582,0,0,1-10.841,1.978,27.582,27.582,0,0,1-10.841-1.978c-2.591-1.148-4.077-2.639-4.077-4.091v-2.9a12.385,12.385,0,0,0,3.293,2.047,29.533,29.533,0,0,0,11.625,2.144,29.533,29.533,0,0,0,11.625-2.144,12.385,12.385,0,0,0,3.293-2.047v2.9c0,1.452-1.486,2.944-4.077,4.091Zm0-6.716a27.582,27.582,0,0,1-10.841,1.978,27.582,27.582,0,0,1-10.841-1.978C78.887,42.79,77.4,41.3,77.4,39.846v-2.9a12.385,12.385,0,0,0,3.293,2.047,29.533,29.533,0,0,0,11.625,2.144,29.533,29.533,0,0,0,11.625-2.144,12.385,12.385,0,0,0,3.293-2.047v2.9c0,1.452-1.486,2.943-4.077,4.091Zm0-6.716A27.582,27.582,0,0,1,92.319,39.2a27.582,27.582,0,0,1-10.841-1.978c-2.59-1.147-4.076-2.638-4.077-4.089h0c0-1.453,1.486-2.944,4.077-4.092a27.581,27.581,0,0,1,10.841-1.978,27.582,27.582,0,0,1,10.841,1.978c2.591,1.148,4.077,2.639,4.077,4.091s-1.486,2.944-4.077,4.091ZM96.35,34.769a2.191,2.191,0,0,1-.5,1.791,4.134,4.134,0,0,1-2.562,1.216v.18a.968.968,0,0,1-1.935,0v-.189a3.612,3.612,0,0,1-3.046-2.295.968.968,0,1,1,1.846-.581c.193.612,1.152,1.041,2.275,1.019a2.954,2.954,0,0,0,1.942-.6.272.272,0,0,0,.068-.251c-.092-.6-1.265-.874-2.233-1-2.879-.374-3.557-1.657-3.619-2.667A2.823,2.823,0,0,1,90.953,28.6c.13-.037.263-.068.4-.094V28.3a.968.968,0,0,1,1.935,0v.2a3.758,3.758,0,0,1,2.723,1.854.968.968,0,0,1-1.71.907,2.531,2.531,0,0,0-2.823-.8c-.459.129-.986.419-.962.811s.748.711,1.937.866c.882.115,3.565.463,3.9,2.626Zm-7.323-15.3a.968.968,0,0,1,1.6-1.087l.723,1.066V8.968a.968.968,0,0,1,1.935,0V19.449l.723-1.066a.968.968,0,1,1,1.6,1.087L93.12,23.143a.968.968,0,0,1-1.6,0Zm25.65,6.637-2.492,3.672a.968.968,0,0,1-1.6,0l-2.492-3.672a.968.968,0,1,1,1.6-1.087l.723,1.066V15.6a.968.968,0,1,1,1.935,0V26.086l.723-1.066a.968.968,0,1,1,1.6,1.087Zm-38.131,0-2.492,3.672a.968.968,0,0,1-1.6,0l-2.492-3.672a.968.968,0,1,1,1.6-1.087l.723,1.066V15.6a.968.968,0,1,1,1.935,0V26.086l.723-1.066a.968.968,0,1,1,1.6,1.087Z" transform="translate(-62.114 -8)" fill="#edc12a"/>
  </g>
</svg>
