<?xml version="1.0" encoding="UTF-8"?>
<svg id="Layer_2" data-name="Layer 2" xmlns="http://www.w3.org/2000/svg" viewBox="0 0 1833.02 592.75">
  <defs>
    <style>
      .cls-1 {
        fill: #fff;
      }

      .cls-2 {
        isolation: isolate;
      }

      .cls-3 {
        fill: #edc127;
      }
    </style>
  </defs>
  <g id="Layer_1-2" data-name="Layer 1">
    <g>
      <g>
        <g id="Path_25" data-name="Path 25">
          <path class="cls-3" d="M10.08,414.59C4.52,414.59,0,410.07,0,404.5H0v-218.5c0-5.57,4.51-10.08,10.08-10.08h0c5.57,0,10.08,4.52,10.08,10.08h0v218.5c0,5.57-4.51,10.08-10.08,10.08h0Z"/>
        </g>
        <g id="Path_26" data-name="Path 26">
          <path class="cls-3" d="M88.52,444.84c-5.84.35-10.85-4.1-11.21-9.93-.03-.42-.03-.85,0-1.27V159.11c-.35-5.84,4.1-10.85,9.93-11.21.42-.03.85-.03,1.27,0,5.84-.35,10.85,4.1,11.21,9.93.03.42.03.85,0,1.27v274.52c.35,5.84-4.1,10.85-9.93,11.21-.42.03-.85.03-1.27,0Z"/>
        </g>
        <g id="Path_27" data-name="Path 27">
          <path class="cls-3" d="M168.08,473.97c-6.78-.06-12.26-5.54-12.33-12.33V131.1c.06-6.78,5.54-12.26,12.33-12.33,6.78.06,12.26,5.54,12.33,12.33v330.55c-.06,6.78-5.54,12.26-12.33,12.33Z"/>
        </g>
        <g id="Path_28" data-name="Path 28">
          <path class="cls-3" d="M246.51,504.23c-7.98-.14-14.42-6.58-14.57-14.57V103.09c.14-7.98,6.58-14.42,14.57-14.57,7.98.14,14.42,6.58,14.57,14.57v386.57c-.14,7.98-6.58,14.42-14.57,14.57Z"/>
        </g>
        <g id="Path_29" data-name="Path 29">
          <path class="cls-3" d="M324.95,533.36c-8.46.21-15.48-6.48-15.69-14.94,0-.25,0-.5,0-.75V75.07c-.21-8.46,6.48-15.48,14.94-15.69.25,0,.5,0,.75,0,8.46-.21,15.48,6.48,15.69,14.94,0,.25,0,.5,0,.75v442.6c.21,8.46-6.48,15.48-14.94,15.69-.25,0-.5,0-.75,0Z"/>
        </g>
        <g id="Path_30" data-name="Path 30">
          <path class="cls-3" d="M403.38,563.61c-9.78.12-17.8-7.7-17.93-17.48,0-.15,0-.3,0-.45V47.06c-.13-9.77,7.68-17.8,17.45-17.93.16,0,.32,0,.47,0,9.78-.12,17.8,7.7,17.93,17.48,0,.15,0,.3,0,.45v498.62c.13,9.77-7.68,17.8-17.45,17.93-.16,0-.32,0-.47,0Z"/>
        </g>
        <g id="Path_31" data-name="Path 31">
          <path class="cls-3" d="M481.82,592.75c-10.43.09-18.96-8.28-19.05-18.71,0-.11,0-.23,0-.34V19.05C462.67,8.62,471.05.09,481.48,0c.11,0,.23,0,.34,0,10.39.3,18.74,8.66,19.05,19.05v554.65c.09,10.43-8.28,18.96-18.71,19.05-.11,0-.23,0-.34,0Z"/>
        </g>
      </g>
      <g>
        <g class="cls-2">
          <path class="cls-3" d="M634.79,450.68c.23,4.14,1.21,7.49,2.93,10.07,3.27,4.83,9.05,7.24,17.32,7.24,3.7,0,7.08-.53,10.12-1.59,5.89-2.05,8.83-5.72,8.83-11.01,0-3.97-1.24-6.8-3.72-8.48-2.51-1.65-6.45-3.09-11.81-4.32l-9.87-2.23c-6.45-1.45-11.01-3.06-13.69-4.81-4.63-3.04-6.95-7.59-6.95-13.64,0-6.55,2.27-11.92,6.8-16.12,4.53-4.2,10.95-6.3,19.25-6.3,7.64,0,14.13,1.84,19.47,5.53,5.34,3.69,8.01,9.58,8.01,17.69h-9.28c-.5-3.9-1.56-6.9-3.18-8.98-3.01-3.8-8.12-5.71-15.33-5.71-5.82,0-10.01,1.22-12.55,3.67-2.55,2.45-3.82,5.29-3.82,8.53,0,3.57,1.49,6.18,4.46,7.84,1.95,1.06,6.37,2.38,13.25,3.97l10.22,2.33c4.93,1.13,8.73,2.66,11.41,4.61,4.63,3.41,6.95,8.35,6.95,14.83,0,8.07-2.94,13.84-8.81,17.32-5.87,3.47-12.69,5.21-20.47,5.21-9.06,0-16.16-2.31-21.28-6.95-5.13-4.6-7.64-10.83-7.54-18.71h9.28Z"/>
          <path class="cls-3" d="M812.39,401.31h11.51l20.94,35.03,20.94-35.03h11.56l-27.54,43.51v29.37h-9.87v-29.37l-27.54-43.51Z"/>
          <path class="cls-3" d="M1014.21,450.68c.23,4.14,1.21,7.49,2.93,10.07,3.27,4.83,9.05,7.24,17.32,7.24,3.7,0,7.08-.53,10.12-1.59,5.89-2.05,8.83-5.72,8.83-11.01,0-3.97-1.24-6.8-3.72-8.48-2.51-1.65-6.45-3.09-11.81-4.32l-9.87-2.23c-6.45-1.45-11.01-3.06-13.69-4.81-4.63-3.04-6.95-7.59-6.95-13.64,0-6.55,2.27-11.92,6.8-16.12,4.53-4.2,10.95-6.3,19.25-6.3,7.64,0,14.13,1.84,19.47,5.53,5.34,3.69,8.01,9.58,8.01,17.69h-9.28c-.5-3.9-1.56-6.9-3.18-8.98-3.01-3.8-8.12-5.71-15.33-5.71-5.82,0-10.01,1.22-12.55,3.67-2.55,2.45-3.82,5.29-3.82,8.53,0,3.57,1.49,6.18,4.46,7.84,1.95,1.06,6.37,2.38,13.25,3.97l10.22,2.33c4.93,1.13,8.73,2.66,11.41,4.61,4.63,3.41,6.95,8.35,6.95,14.83,0,8.07-2.94,13.84-8.81,17.32-5.87,3.47-12.69,5.21-20.47,5.21-9.06,0-16.16-2.31-21.28-6.95-5.13-4.6-7.64-10.83-7.54-18.71h9.28Z"/>
          <path class="cls-3" d="M1250.5,401.31v8.68h-24.56v64.2h-10.02v-64.2h-24.56v-8.68h59.14Z"/>
          <path class="cls-3" d="M1382.41,401.31h53.14v8.93h-43.51v22.13h40.24v8.43h-40.24v24.71h44.26v8.68h-53.88v-72.89Z"/>
          <path class="cls-3" d="M1570.93,401.31h14.14l20.94,61.62,20.79-61.62h13.99v72.89h-9.38v-43.02c0-1.49.03-3.95.1-7.39.07-3.44.1-7.13.1-11.06l-20.79,61.47h-9.78l-20.94-61.47v2.23c0,1.79.04,4.51.12,8.16.08,3.66.12,6.34.12,8.06v43.02h-9.43v-72.89Z"/>
          <path class="cls-3" d="M1784.2,450.68c.23,4.14,1.21,7.49,2.93,10.07,3.27,4.83,9.05,7.24,17.32,7.24,3.7,0,7.08-.53,10.12-1.59,5.89-2.05,8.83-5.72,8.83-11.01,0-3.97-1.24-6.8-3.72-8.48-2.51-1.65-6.45-3.09-11.81-4.32l-9.87-2.23c-6.45-1.45-11.01-3.06-13.69-4.81-4.63-3.04-6.95-7.59-6.95-13.64,0-6.55,2.27-11.92,6.8-16.12,4.53-4.2,10.95-6.3,19.25-6.3,7.64,0,14.13,1.84,19.48,5.53,5.34,3.69,8.01,9.58,8.01,17.69h-9.28c-.5-3.9-1.56-6.9-3.18-8.98-3.01-3.8-8.12-5.71-15.33-5.71-5.82,0-10,1.22-12.55,3.67-2.55,2.45-3.82,5.29-3.82,8.53,0,3.57,1.49,6.18,4.47,7.84,1.95,1.06,6.37,2.38,13.25,3.97l10.22,2.33c4.93,1.13,8.73,2.66,11.41,4.61,4.63,3.41,6.95,8.35,6.95,14.83,0,8.07-2.94,13.84-8.81,17.32-5.87,3.47-12.69,5.21-20.47,5.21-9.06,0-16.16-2.31-21.28-6.95-5.13-4.6-7.64-10.83-7.54-18.71h9.28Z"/>
        </g>
        <g id="Path_32" data-name="Path 32">
          <path class="cls-1" d="M751.75,124.47h-43.72l-88.61,228.04h44.9l18.9-46.08h0l15.36-42.53,30.72-77.98,30.72,77.98,16.54,42.53,17.72,47.26h44.9l-87.43-228.04v-1.18Z"/>
        </g>
        <g id="Path_33" data-name="Path 33">
          <path class="cls-1" d="M873.44,124.47h46.08c18.39-.9,36.8,1.5,54.35,7.09,10.9,4.42,20.04,12.31,25.99,22.45,6.3,11.17,9.56,23.8,9.45,36.63.04,14.43-4.51,28.5-13,40.17-8.92,10.74-20.86,18.56-34.26,22.45-15.17,2.99-30.63,4.18-46.08,3.54v96.89h-43.72V125.65l1.18-1.18ZM917.16,213.08h14.18c7.57.84,15.22.04,22.45-2.36,4.34-.99,7.89-4.1,9.45-8.27,2.41-3.9,3.64-8.41,3.54-13,.45-7.84-3.7-15.22-10.63-18.9-8.44-4.07-17.85-5.7-27.18-4.73h-11.82v47.26Z"/>
        </g>
        <g id="Path_34" data-name="Path 34">
          <path class="cls-1" d="M1159.37,118.56c31.34-.41,61.39,12.47,82.71,35.45,22.73,22.37,35.14,53.19,34.26,85.07.33,31.78-12,62.39-34.26,85.07-21.78,22.88-52.31,35.36-83.89,34.26-32.08.67-62.96-12.2-85.07-35.45-22.04-22.35-34.36-52.5-34.26-83.89-1.66-21.23,3.74-42.41,15.36-60.26,10.14-18.42,25.3-33.58,43.72-43.72,18.24-10.81,39.05-16.52,60.26-16.54h1.18ZM1158.19,161.09c-20.16-.67-39.59,7.54-53.17,22.45-14.36,14.84-22.05,34.9-21.27,55.53-.06,23.07,9.85,45.03,27.18,60.26,13.51,11.5,30.7,17.79,48.44,17.72,19.98-.24,39.07-8.3,53.17-22.45,14.18-14.96,21.83-34.93,21.27-55.53.69-20.85-7.47-41.02-22.45-55.53-13.71-14.72-33.06-22.88-53.17-22.45h0Z"/>
        </g>
        <g id="Path_35" data-name="Path 35">
          <path class="cls-1" d="M1317.7,124.47h43.72v186.68h63.8v41.35h-106.34V124.47h-1.18Z"/>
        </g>
        <g id="Path_36" data-name="Path 36">
          <path class="cls-1" d="M1458.3,124.47h43.72v186.68h63.8v41.35h-106.34V124.47h-1.18Z"/>
        </g>
        <g id="Path_37" data-name="Path 37">
          <path class="cls-3" d="M1705.24,118.56c31.34-.41,61.39,12.47,82.71,35.45,22.73,22.37,35.14,53.19,34.26,85.07.33,31.78-12,62.39-34.26,85.07-21.78,22.88-52.31,35.36-83.89,34.26-32.08.67-62.96-12.2-85.07-35.45-22.04-22.35-34.36-52.5-34.26-83.89-1.66-21.23,3.74-42.41,15.36-60.26,10.14-18.42,25.3-33.58,43.72-43.72,18.24-10.81,39.05-16.52,60.26-16.54h1.18ZM1705.24,161.09c-20.16-.67-39.59,7.54-53.17,22.45-14.36,14.84-22.05,34.9-21.27,55.53-.06,23.07,9.85,45.03,27.18,60.26,13.51,11.5,30.7,17.79,48.44,17.72,19.98-.24,39.07-8.3,53.17-22.45,14.18-14.96,21.83-34.93,21.27-55.53.69-20.85-7.47-41.02-22.45-55.53-13.71-14.72-33.06-22.88-53.17-22.45h0Z"/>
        </g>
      </g>
    </g>
  </g>
</svg>